PathFileType	4	(X/Y/Z)	C:\Users\Basilio\Documents\Thesis Gigler\squatting_fais\c3dfiles\077\SJ_pre2\markers_experimental.trc
DataRate	CameraRate	NumFrames	NumMarkers	Units	OrigDataRate	OrigDataStartFrame	OrigNumFrames
200.000000	200.000000	4	60	mm	200.000000	631	1263
Frame#	Time	FHD			LBHD			RBHD			C7			T10			CLAV			LSHO			LUUPA			LMUPA			LDUPA			LLEP			LMEP			LRAD			LUL			LRFIN			RSHO			RUPA1			RMUPA			RDUPA			RLEP			RMEP			RRAD			RUL			RUFIN			LASI			RASI			USACR			LSACR			RSACR			LTHI1			LTHI2			LTHI3			LTHI4			LLFC			LMFC			LTIB1			LTIB2			LTIB3			LTIB4			LLMAL			LHEE			LMT1			LMT2			LMT5			RTHI			RTHI2			RTHI3			RTHI4			RLFC			RMFC			RTIB1			RTIB2			RTIB3			RTIB4			RLMAL			RMMAL			RHEE			RMT1			RMT2			RMT5			
		X1	Y1	Z1	X2	Y2	Z2	X3	Y3	Z3	X4	Y4	Z4	X5	Y5	Z5	X6	Y6	Z6	X7	Y7	Z7	X8	Y8	Z8	X9	Y9	Z9	X10	Y10	Z10	X11	Y11	Z11	X12	Y12	Z12	X13	Y13	Z13	X14	Y14	Z14	X15	Y15	Z15	X16	Y16	Z16	X17	Y17	Z17	X18	Y18	Z18	X19	Y19	Z19	X20	Y20	Z20	X21	Y21	Z21	X22	Y22	Z22	X23	Y23	Z23	X24	Y24	Z24	X25	Y25	Z25	X26	Y26	Z26	X27	Y27	Z27	X28	Y28	Z28	X29	Y29	Z29	X30	Y30	Z30	X31	Y31	Z31	X32	Y32	Z32	X33	Y33	Z33	X34	Y34	Z34	X35	Y35	Z35	X36	Y36	Z36	X37	Y37	Z37	X38	Y38	Z38	X39	Y39	Z39	X40	Y40	Z40	X41	Y41	Z41	X42	Y42	Z42	X43	Y43	Z43	X44	Y44	Z44	X45	Y45	Z45	X46	Y46	Z46	X47	Y47	Z47	X48	Y48	Z48	X49	Y49	Z49	X50	Y50	Z50	X51	Y51	Z51	X52	Y52	Z52	X53	Y53	Z53	X54	Y54	Z54	X55	Y55	Z55	X56	Y56	Z56	X57	Y57	Z57	X58	Y58	Z58	X59	Y59	Z59	X60	Y60	Z60	

632	3.155	132.0351257324219	1246.37158203125	-906.414489746094	-12.19243621826172	1140.854248046875	-971.9238281250002	-19.93869590759278	1144.08984375	-827.5410766601565	-78.99924468994142	1083.236694335938	-902.181335449219	-312.5722045898438	873.7778320312502	-905.0261230468752	33.24091339111329	934.8765869140627	-890.0068359375002	47.20516967773438	990.5342407226565	-1068.608520507813	-33.09380722045899	923.481628417969	-1260.325439453125	-42.39790344238282	875.698669433594	-1262.455688476563	-66.48564910888673	896.680603027344	-1314.104370117188	-111.7726364135742	851.5098266601565	-1351.127807617188	-174.4539489746094	912.6696777343752	-1344.620849609375	-338.3894653320313	775.9199829101565	-1140.816284179688	-326.5725402832032	705.8855590820314	-1180.69287109375	nan	nan	nan	53.45664215087892	980.1404418945315	-718.3828125000001	-56.03046798706056	909.8314208984377	-524.3571777343751	-75.91099548339845	864.7935791015627	-533.9671630859376	-103.1155853271485	879.362731933594	-482.0585937500001	-158.2673645019532	836.512145996094	-458.3497314453126	-219.1717834472657	903.005798339844	-462.8305664062501	-374.4859619140626	759.7903442382814	-659.7821655273439	-346.2672729492188	688.7607421875001	-638.0953369140626	nan	nan	nan	nan	nan	nan	nan	nan	nan	-408.8655090332032	816.1051025390627	-908.3717041015627	-432.7561950683595	806.7141113281252	-938.776794433594	-443.8692932128907	804.053405761719	-884.6054687500002	-333.9671325683594	604.5532836914064	-1164.519409179688	-255.6495208740235	595.0891113281251	-1192.989501953125	-226.3603820800782	631.6643676757814	-1176.44921875	-228.2122497558594	544.0941772460939	-1212.119140625	-95.09119415283205	480.3398437500001	-1245.180053710938	-52.75045394897462	436.6228027343751	-1127.132690429688	-137.2613372802735	266.4765014648438	-1191.484497070313	-208.5477752685547	258.2602233886719	-1249.829956054688	-177.2413635253907	236.0339508056641	-1224.4267578125	-218.0294494628907	168.8382263183594	-1190.229736328125	-336.2039794921876	104.1001510620117	-1217.168212890625	-391.584686279297	49.71171951293947	-1162.049194335938	-177.1618194580078	55.99763107299806	-1196.447509765625	-185.424560546875	58.91167068481447	-1238.034790039063	-287.8769836425782	96.72263336181643	-1143.124755859375	-256.5452270507813	541.9481201171876	-613.6158447265626	-187.7618255615235	552.7412109375001	-597.4138793945314	-169.3731689453125	579.3095703125001	-608.8513183593751	-137.4496459960938	487.3336486816407	-585.9569702148439	-105.478500366211	447.7451171875001	-575.3281860351564	-51.85814285278322	423.6054077148439	-691.0283813476564	-116.5995712280274	314.8280029296876	-586.3501586914064	-221.2052917480469	285.6372070312501	-577.8184204101564	-183.6359100341797	258.2592163085938	-588.7211914062501	-191.2040252685547	215.2877044677735	-627.8755493164064	-349.8467102050782	100.1238021850586	-620.2390136718751	-299.7217407226563	86.54793548583986	-695.9003906250001	-406.127655029297	50.54467010498048	-685.5110473632814	-196.1329193115235	58.4249839782715	-596.1685791015626	-213.1571655273438	61.08398437500001	-562.3900146484376	-245.3762207031251	43.29466629028321	-521.6184692382814	
633	3.16	132.1375427246094	1246.303466796875	-906.4140625000002	-12.03964233398438	1140.911499023438	-971.817565917969	-19.81283187866211	1144.031982421875	-827.4400024414065	-78.89417266845705	1083.21630859375	-902.165954589844	-312.4681701660157	873.7958984375002	-905.001403808594	33.44359207153321	934.8375244140627	-889.949157714844	47.35902786254884	990.4663696289065	-1068.539794921875	-32.88045501708985	923.572692871094	-1260.294921875	-42.45971298217774	875.828308105469	-1262.549926757813	-66.3566131591797	896.7095947265627	-1314.078369140625	-111.6838836669922	851.5993652343752	-1351.075805664063	-174.3020477294922	912.750427246094	-1344.604125976563	-338.3456726074219	776.1890258789065	-1140.772094726563	-326.4565734863282	705.9666137695314	-1180.689086914063	nan	nan	nan	53.5414390563965	980.112731933594	-718.3272705078126	-55.97220993041994	909.8543090820315	-524.3827514648439	-75.80277252197267	864.7973632812502	-533.8903808593751	-103.0803375244141	879.3625488281252	-482.0146789550782	-158.2577362060547	836.4964599609377	-458.3680114746095	-219.0989990234376	903.0486450195315	-462.8331604003907	-374.4523315429688	759.7884521484376	-659.8215942382814	-346.2343750000001	688.8106079101564	-638.0612182617189	nan	nan	nan	nan	nan	nan	nan	nan	nan	-408.7789916992189	816.1555175781252	-908.3674316406252	-432.7716064453126	806.8181152343752	-938.7405395507815	-443.860321044922	804.1218872070315	-884.5845336914065	-333.9713134765626	604.6364135742189	-1164.519653320313	-255.5544738769532	595.1395874023439	-1193.003051757813	-226.2865447998047	631.6787719726564	-1176.466430664063	-228.0188446044922	544.0710449218751	-1212.098022460938	-94.88591766357423	480.293182373047	-1245.175170898438	-52.74886703491212	436.6104431152345	-1127.142578125	-137.2079467773438	266.4851379394532	-1191.4423828125	-208.5435485839844	258.2281188964844	-1249.838012695313	-177.1958618164063	235.9983367919922	-1224.505981445313	-217.9217376708985	168.8739624023438	-1190.194458007813	-336.2747497558594	104.1541137695313	-1217.130126953125	-391.6047668457032	49.7470169067383	-1162.058471679688	-177.1953125	56.11212158203126	-1196.475463867188	-185.575912475586	58.98287200927736	-1238.14599609375	-287.8668823242188	96.74027252197268	-1143.120849609375	-256.5585937500001	542.0004272460939	-613.6153564453126	-187.7657775878907	552.7977294921876	-597.4011840820314	-169.3058471679688	579.3648681640626	-608.8749389648439	-137.4895629882813	487.2361145019532	-586.0278320312501	-105.4859237670899	447.7464294433595	-575.3431396484376	-51.8801612854004	423.6196289062501	-691.0692749023439	-116.5829162597657	314.8237915039063	-586.3110961914064	-221.1927795410157	285.6574401855469	-577.7791137695314	-183.6242218017578	258.2958068847657	-588.6939697265626	-191.1604461669922	215.2541198730469	-627.8058471679689	-349.8388671875001	100.1313171386719	-620.2214355468751	-299.7106933593751	86.57615661621095	-695.8484497070314	-406.1032104492189	50.51898574829103	-685.5527343750001	-196.1763763427735	58.39641571044923	-596.2016601562501	-213.1528015136719	61.08049774169923	-562.3920288085939	-245.3986053466797	43.26565551757813	-521.6845703125001	
634	3.165	132.2293243408203	1246.287353515625	-906.3406982421877	-12.00213527679444	1140.861572265625	-971.8630981445315	-19.73647117614746	1144.062255859375	-827.4904785156252	-78.80670166015626	1083.226684570313	-902.092956542969	-312.4003906250001	873.9328613281252	-905.0288085937502	33.5423927307129	934.7559814453127	-889.9085693359377	47.46022415161134	990.479919433594	-1068.532958984375	-32.92875289916993	923.6804809570315	-1260.344848632813	-42.4610710144043	875.9036254882815	-1262.546142578125	-66.27645111083986	896.7678833007815	-1314.104370117188	-111.500717163086	851.643981933594	-1351.049438476563	-174.2810974121094	912.9177246093752	-1344.59033203125	-338.2463989257813	776.0845947265627	-1140.795532226563	-326.4606018066407	706.0092163085939	-1180.6328125	nan	nan	nan	53.63598632812501	980.040954589844	-718.3495483398439	-55.95058822631837	909.8764648437502	-524.3632812500001	-75.78235626220705	864.7985839843752	-533.8638305664064	-103.0867233276367	879.3574829101565	-481.9768066406251	-158.1859130859375	836.5459594726565	-458.3093261718751	-219.0185699462891	903.1052246093752	-462.848358154297	-374.5754089355469	760.1336669921876	-659.9561767578126	-346.2211303710938	688.8156738281251	-638.0929565429689	nan	nan	nan	nan	nan	nan	nan	nan	nan	-408.761444091797	816.210144042969	-908.3317871093752	-432.6914672851564	806.9508056640627	-938.7548828125002	-443.8351135253907	804.2037353515627	-884.605651855469	-333.9294738769532	604.6859741210939	-1164.546875	-254.7013397216797	594.8351440429689	-1192.783203125	-226.2810363769532	631.7313842773439	-1176.47216796875	-228.1869812011719	544.1791992187501	-1212.154052734375	-94.83190155029298	480.3093566894532	-1245.1865234375	-52.70995712280275	436.6638183593751	-1127.078002929688	-137.2405853271485	266.5343017578126	-1191.439697265625	-207.2512512207032	257.7678222656251	-1249.676513671875	-177.136459350586	236.0250549316407	-1224.544311523438	-217.9633941650391	168.86962890625	-1190.130126953125	-336.3066711425782	104.1765441894532	-1217.12548828125	-391.6168212890626	49.76919174194337	-1162.043823242188	-177.2071380615235	56.14107513427736	-1196.47607421875	-185.4630584716797	58.98439407348634	-1238.0751953125	-287.8157348632813	96.8713302612305	-1143.135498046875	-256.4995727539063	542.1175537109376	-613.6304321289064	-187.7496032714844	552.8352661132814	-597.3966064453126	-169.2879486083985	579.4080810546876	-608.8280029296876	-137.4830627441407	487.349578857422	-586.0120239257814	-105.4893035888672	447.7348022460939	-575.3215332031251	-51.94645309448244	423.6813964843751	-691.0297851562501	-116.6194839477539	314.8020324707032	-586.3236083984376	-221.1894531250001	285.6703491210938	-577.8045043945314	-183.5918579101563	258.3179016113282	-588.6868286132814	-191.1934356689453	215.2511444091797	-627.7988281250001	-349.8404846191407	100.1161804199219	-620.2341918945314	-299.6128845214844	86.56214141845705	-695.8769531250001	-406.240936279297	50.62093353271486	-685.5530395507814	-196.1767730712891	58.34600067138673	-596.1822509765626	-213.1470031738282	61.09971618652345	-562.3776855468751	-245.4104156494141	43.27547836303712	-521.6275024414064	
635	3.17	132.300048828125	1246.265380859375	-906.2993774414065	-11.91183948516846	1140.5546875	-971.7690429687502	-19.62287330627442	1144.045654296875	-827.4146118164065	-78.66233825683595	1083.2548828125	-902.0012207031252	-312.3660888671876	873.9268798828127	-905.0217285156252	33.53525543212891	934.7314453125002	-889.8841552734377	47.6883888244629	990.4077148437502	-1068.523681640625	-32.72593688964844	923.6738281250002	-1260.30078125	-42.26201629638673	875.8455200195315	-1262.528564453125	-66.25563049316408	896.800964355469	-1314.0712890625	-111.4605255126953	851.6577758789065	-1351.039916992188	-174.1074829101563	912.9876708984377	-1344.571533203125	-338.1995239257813	776.288024902344	-1140.711791992188	-326.3390502929688	706.0460205078126	-1180.642822265625	nan	nan	nan	53.69660568237306	979.9837036132815	-718.3316040039064	-55.84728622436525	909.8665161132815	-524.3498535156251	-75.70462036132814	864.761169433594	-533.8422851562501	-102.9934616088867	879.323425292969	-481.925506591797	-158.1746063232422	836.5598754882815	-458.2785949707032	-218.9490051269532	903.1617431640627	-462.8577270507814	-374.2914123535157	759.8502807617189	-659.7210693359376	-346.1816406250001	688.8677368164064	-638.1215820312501	nan	nan	nan	nan	nan	nan	nan	nan	nan	-408.6319580078126	816.175964355469	-908.3409423828127	-432.5813903808595	807.0078125000002	-938.7720947265627	-443.8088378906251	804.2188110351565	-884.6702880859377	-333.8228454589844	604.7060546875001	-1164.50341796875	-255.4097900390626	595.1701049804689	-1193.012084960938	-226.2384948730469	631.7737426757814	-1176.461547851563	-228.116683959961	544.1839599609376	-1212.119750976563	-94.81131744384767	480.3453369140626	-1245.186767578125	-52.69038772583009	436.689666748047	-1127.1298828125	-137.1846160888672	266.4925842285157	-1191.498413085938	-208.5130462646485	258.2814025878907	-1249.873901367188	-177.1705627441407	236.0501861572266	-1224.545776367188	-218.0177459716797	168.8170928955078	-1190.27197265625	-336.2728576660157	104.1554489135742	-1217.155151367188	-391.6014404296876	49.7654495239258	-1162.056884765625	-177.2403869628907	56.15208816528322	-1196.479248046875	-185.5198364257813	58.98479461669923	-1238.099609375	-287.8444824218751	96.80133819580081	-1143.14599609375	-256.4820861816407	542.0947875976564	-613.6499633789064	-187.7420501708985	552.8340454101564	-597.4205932617189	-169.3019104003907	579.3736572265626	-608.8541259765626	-137.4793090820313	487.3535461425782	-585.9642944335939	-105.4778366088867	447.7942199707032	-575.2738647460939	-51.91847229003908	423.6366271972657	-691.0327148437501	-116.5812759399414	314.8803710937501	-586.2980957031251	-221.2218322753907	285.6613159179688	-577.8043212890626	-183.6117706298828	258.3086547851563	-588.7106933593751	-191.2054901123047	215.3592681884766	-627.7632446289064	-349.8582458496094	100.1386108398438	-620.2620239257814	-299.6954345703126	86.54878997802736	-695.8497314453126	-406.1628723144532	50.62387084960939	-685.5272827148439	-196.141098022461	58.39794921875001	-596.1570434570314	-213.1500244140626	61.0608596801758	-562.4260864257814	-245.4189147949219	43.2435646057129	-521.6406860351564	
